<svg width="100" height="98" viewBox="0 0 100 98" fill="none" xmlns="http://www.w3.org/2000/svg">
<path d="M50.0002 0C22.3894 0 0 22.3781 0 49.9836C0 72.068 14.3266 90.8039 34.1933 97.4132C36.692 97.8758 37.6097 96.3289 37.6097 95.0086C37.6097 93.8169 37.563 89.8791 37.5418 85.7026C23.6313 88.7262 20.6961 79.8052 20.6961 79.8052C18.4217 74.0277 15.1446 72.4918 15.1446 72.4918C10.6083 69.3894 15.4865 69.4529 15.4865 69.4529C20.5075 69.8057 23.1513 74.604 23.1513 74.604C27.6108 82.2455 34.8482 80.0361 37.7014 78.7593C38.15 75.5283 39.4461 73.3236 40.8758 72.0755C29.7703 70.8112 18.0954 66.5254 18.0954 47.3732C18.0954 41.9164 20.0487 37.4572 23.2474 33.9569C22.7282 32.6978 21.0169 27.6142 23.7317 20.7292C23.7317 20.7292 27.9304 19.3858 37.4853 25.8529C41.4734 24.745 45.7509 24.1899 50.0002 24.1711C54.2495 24.1899 58.5301 24.745 62.526 25.8529C72.0696 19.3858 76.2624 20.7292 76.2624 20.7292C78.9839 27.6142 77.2718 32.6978 76.7526 33.9569C79.9584 37.4572 81.8983 41.916 81.8983 47.3732C81.8983 66.5708 70.2014 70.7983 59.0677 72.0355C60.861 73.5867 62.459 76.6287 62.459 81.2917C62.459 87.9794 62.4009 93.3622 62.4009 95.0086C62.4009 96.3387 63.3009 97.8974 65.8357 97.4066C85.6915 90.7898 100 72.0606 100 49.9836C100 22.3781 77.6137 0 50.0002 0Z" fill="white"/>
<path d="M18.7268 71.2031C18.617 71.4512 18.2256 71.5257 17.8699 71.3555C17.5072 71.1925 17.3033 70.8538 17.4209 70.6045C17.5288 70.3489 17.9201 70.2775 18.2821 70.4492C18.6456 70.6119 18.8526 70.9537 18.7268 71.2031ZM21.1863 73.3968C20.9479 73.6179 20.4816 73.5152 20.1651 73.1659C19.8381 72.8174 19.7769 72.3517 20.0189 72.127C20.2647 71.9063 20.7169 72.0094 21.0447 72.3583C21.3718 72.7107 21.4353 73.1737 21.1859 73.3972M22.8737 76.2036C22.567 76.4164 22.0659 76.2169 21.7565 75.7724C21.4502 75.3282 21.4502 74.7951 21.7631 74.5814C22.0737 74.3678 22.567 74.5599 22.8807 75.0009C23.1866 75.4529 23.1866 75.986 22.8733 76.204M25.7269 79.4545C25.4528 79.7564 24.8693 79.6756 24.4419 79.2632C24.005 78.8602 23.8831 78.2883 24.1579 77.9861C24.4352 77.6834 25.0222 77.7685 25.4528 78.1774C25.8869 78.5796 26.0191 79.1558 25.7269 79.4545ZM29.4146 80.5522C29.2942 80.9434 28.7319 81.1214 28.1656 80.9552C27.6002 80.7839 27.23 80.3252 27.3441 79.9297C27.4618 79.5357 28.0264 79.3503 28.597 79.5282C29.1617 79.6988 29.5323 80.1539 29.4146 80.5522ZM33.6121 81.0175C33.6262 81.4299 33.1459 81.7717 32.5514 81.7792C31.9534 81.7921 31.4698 81.4585 31.4636 81.0532C31.4636 80.6368 31.933 80.2981 32.5306 80.2883C33.1251 80.2766 33.6121 80.6078 33.6121 81.0175ZM37.7351 80.8595C37.8065 81.2617 37.3932 81.6749 36.803 81.7847C36.2226 81.8905 35.6854 81.6424 35.6113 81.2437C35.5391 80.8313 35.9603 80.4185 36.5395 80.3115C37.1308 80.2088 37.6598 80.4506 37.7351 80.8595Z" fill="white"/>
</svg>
