<svg width="100" height="96" viewBox="0 0 100 96" fill="none" xmlns="http://www.w3.org/2000/svg">
<g clip-path="url(#clip0_27_6)">
<path d="M0 11.0784C0 7.86718 1.12616 5.218 3.37838 3.13084C5.6306 1.04358 8.55859 0 12.1622 0C15.7014 0 18.565 1.02749 20.7529 3.08267C23.0051 5.20201 24.1313 7.96351 24.1313 11.3674C24.1313 14.45 23.0374 17.0189 20.8494 19.074C18.5972 21.1934 15.6371 22.2531 11.9691 22.2531H11.8726C8.3333 22.2531 5.46979 21.1934 3.28185 19.074C1.09392 16.9547 0 14.2894 0 11.0784ZM1.25483 95.3702V31.0194H22.6834V95.3702H1.25483ZM34.556 95.3702H55.9846V59.4378C55.9846 57.19 56.242 55.456 56.7568 54.2358C57.6576 52.0522 59.0251 50.2058 60.8591 48.6966C62.693 47.1874 64.9935 46.4328 67.7606 46.4328C74.9679 46.4328 78.5714 51.2815 78.5714 60.9791V95.3702H100V58.4745C100 48.9695 97.7478 41.7606 93.2432 36.8476C88.7387 31.9346 82.7864 29.4781 75.3861 29.4781C67.0849 29.4781 60.6178 33.0424 55.9846 40.1711V40.3638H55.888L55.9846 40.1711V31.0194H34.556C34.6847 33.0745 34.749 39.4646 34.749 50.1898C34.749 60.9149 34.6847 75.975 34.556 95.3702Z" fill="white"/>
</g>
<defs>
<clipPath id="clip0_27_6">
<rect width="100" height="95.3704" fill="white"/>
</clipPath>
</defs>
</svg>
