<svg width="90" height="90" viewBox="0 0 90 90" fill="none" xmlns="http://www.w3.org/2000/svg">
<g clip-path="url(#clip0_4_84)">
<path d="M0 0H90V90H0V0Z" fill="#F0DB4F"/>
<path d="M82.634 68.535C81.9753 64.4286 79.2975 60.9809 71.3669 57.7641C68.6121 56.498 65.5408 55.5912 64.6254 53.5037C64.3003 52.2888 64.2576 51.6044 64.4629 50.8687C65.0532 48.4818 67.9021 47.7375 70.1606 48.4219C71.615 48.9096 72.9924 50.0304 73.8222 51.8183C77.7062 49.3032 77.6977 49.3202 80.4097 47.5922C79.4173 46.0522 78.8868 45.3421 78.2367 44.6834C75.9011 42.0741 72.7186 40.7309 67.6283 40.8336C66.7471 40.9448 65.8575 41.0645 64.9762 41.1758C62.4354 41.8174 60.0142 43.152 58.5941 44.9401C54.3336 49.7737 55.5484 58.2347 60.7329 61.7167C65.8403 65.5494 73.3431 66.422 74.3013 70.0066C75.2338 74.3954 71.0761 75.8155 66.9439 75.3108C63.8983 74.6777 62.2044 73.1292 60.3735 70.3146C57.0029 72.2652 57.0029 72.2652 53.5381 74.2585C54.3594 76.0551 55.2233 76.8678 56.6008 78.4249C63.1198 85.038 79.4344 84.7129 82.3603 74.7034C82.48 74.3611 83.2672 72.0683 82.634 68.535ZM48.9268 41.3639H40.5085C40.5085 48.6358 40.4744 55.8563 40.4744 63.1282C40.4744 67.7565 40.7139 71.9999 39.9611 73.3002C38.7291 75.8581 35.5381 75.5417 34.0837 75.0454C32.6037 74.3182 31.8508 73.283 30.9782 71.8202C30.7386 71.401 30.559 71.0759 30.499 71.0502C28.2149 72.4447 25.9391 73.8477 23.6549 75.2423C24.7928 77.5778 26.4695 79.6054 28.6169 80.9228C31.8251 82.8477 36.1368 83.438 40.6455 82.4028C43.5799 81.5473 46.1121 79.7765 47.4382 77.0816C49.3545 73.5483 48.9439 69.2708 48.9268 64.5398C48.9695 56.8231 48.9268 49.1063 48.9268 41.3639Z" fill="#323330"/>
</g>
<defs>
<clipPath id="clip0_4_84">
<rect width="90" height="90" fill="white"/>
</clipPath>
</defs>
</svg>
