<svg width="79" height="90" viewBox="0 0 79 90" fill="none" xmlns="http://www.w3.org/2000/svg">
<g clip-path="url(#clip0_4_87)">
<path d="M78.9605 45.0079C78.9605 39.7756 72.41 34.8169 62.3669 31.7419C64.6845 21.5027 63.6545 13.3563 59.1158 10.7482C58.0696 10.1365 56.8464 9.84667 55.5105 9.84667V13.4368C56.2509 13.4368 56.8464 13.5817 57.3453 13.8554C59.5342 15.1112 60.4838 19.8927 59.7435 26.0427C59.5664 27.5561 59.2767 29.1499 58.9226 30.776C55.7681 30.0032 52.3238 29.4075 48.7025 29.0211C46.5297 26.0427 44.2765 23.338 42.0071 20.9714C47.254 16.0933 52.179 13.4207 55.5266 13.4207V9.83057C51.1006 9.83057 45.3065 12.9861 39.4481 18.4599C33.5896 13.0183 27.7955 9.89496 23.3695 9.89496V13.4851C26.7011 13.4851 31.6421 16.1416 36.889 20.9875C34.6357 23.3541 32.3825 26.0427 30.2419 29.0211C26.6045 29.4075 23.1602 30.0032 20.0057 30.7921C19.6355 29.1821 19.3619 27.6205 19.1688 26.1232C18.4123 19.9732 19.3458 15.1917 21.5186 13.9198C22.0014 13.63 22.6291 13.5012 23.3695 13.5012V9.91106C22.0175 9.91106 20.7943 10.2009 19.7321 10.8126C15.2095 13.4207 14.1955 21.551 16.5292 31.758C6.51834 34.8491 0 39.7917 0 45.0079C0 50.2402 6.55053 55.1989 16.5936 58.2739C14.276 68.5131 15.306 76.6595 19.8447 79.2676C20.8909 79.8794 22.1141 80.1692 23.466 80.1692C27.8921 80.1692 33.6862 77.0136 39.5446 71.5398C45.4031 76.9815 51.1972 80.1048 55.6232 80.1048C56.9752 80.1048 58.1984 79.815 59.2606 79.2032C63.7832 76.5951 64.7972 68.4648 62.4635 58.2578C72.4422 55.1828 78.9605 50.2241 78.9605 45.0079ZM58.0052 34.2696C57.4097 36.3464 56.6694 38.4876 55.8324 40.6288C55.1726 39.3409 54.4805 38.0529 53.724 36.765C52.9837 35.477 52.1951 34.2213 51.4064 32.9977C53.6919 33.3358 55.8968 33.7544 58.0052 34.2696ZM50.6339 51.4155C49.3785 53.5889 48.0909 55.6497 46.755 57.5655C44.3569 57.7748 41.9266 57.8875 39.4803 57.8875C37.05 57.8875 34.6197 57.7748 32.2376 57.5816C30.9018 55.6658 29.5981 53.6211 28.3427 51.4638C27.1195 49.3548 26.009 47.2135 24.995 45.0562C25.9929 42.8989 27.1195 40.7415 28.3266 38.6325C29.582 36.4591 30.8696 34.3984 32.2055 32.4825C34.6036 32.2732 37.0339 32.1605 39.4803 32.1605C41.9105 32.1605 44.3408 32.2732 46.7229 32.4664C48.0587 34.3823 49.3624 36.4269 50.6178 38.5842C51.841 40.6933 52.9515 42.8345 53.9655 44.9918C52.9515 47.1491 51.841 49.3065 50.6339 51.4155ZM55.8324 49.3226C56.7016 51.4799 57.4419 53.6372 58.0535 55.7302C55.9451 56.2453 53.724 56.68 51.4225 57.0181C52.2111 55.7785 52.9998 54.5066 53.7401 53.2025C54.4805 51.9146 55.1726 50.6105 55.8324 49.3226ZM39.5124 66.5007C38.0156 64.9552 36.5188 63.2325 35.0381 61.3489C36.4866 61.4133 37.9674 61.4616 39.4642 61.4616C40.9771 61.4616 42.4739 61.4294 43.9385 61.3489C42.49 63.2325 40.9932 64.9552 39.5124 66.5007ZM27.538 57.0181C25.2526 56.68 23.0476 56.2614 20.9392 55.7463C21.5347 53.6694 22.275 51.5282 23.112 49.387C23.7718 50.6749 24.4639 51.9629 25.2204 53.2508C25.9768 54.5388 26.7494 55.7946 27.538 57.0181ZM39.432 23.5151C40.9288 25.0607 42.4256 26.7833 43.9063 28.6669C42.4578 28.6025 40.9771 28.5543 39.4803 28.5543C37.9674 28.5543 36.4705 28.5864 35.0059 28.6669C36.4545 26.7833 37.9513 25.0607 39.432 23.5151ZM27.5219 32.9977C26.7333 34.2374 25.9446 35.5092 25.2043 36.8133C24.4639 38.1012 23.7718 39.3892 23.112 40.6772C22.2428 38.5198 21.5025 36.3625 20.8909 34.2696C22.9993 33.7705 25.2204 33.3358 27.5219 32.9977ZM12.9562 53.1542C7.2587 50.7232 3.57302 47.5355 3.57302 45.0079C3.57302 42.4803 7.2587 39.2765 12.9562 36.8616C14.3404 36.2659 15.8533 35.7346 17.4144 35.2355C18.3318 38.391 19.5389 41.6753 21.0357 45.0401C19.555 48.3888 18.364 51.657 17.4627 54.7964C15.8694 54.2973 14.3565 53.7499 12.9562 53.1542ZM21.6152 76.1604C19.4263 74.9046 18.4767 70.1231 19.217 63.9731C19.3941 62.4597 19.6838 60.8659 20.0379 59.2398C23.1924 60.0126 26.6367 60.6083 30.258 60.9947C32.4308 63.9731 34.684 66.6778 36.9534 69.0444C31.7065 73.9226 26.7815 76.5951 23.4339 76.5951C22.7096 76.579 22.098 76.4341 21.6152 76.1604ZM59.7917 63.8926C60.5482 70.0426 59.6147 74.8241 57.4419 76.096C56.9591 76.3858 56.3314 76.5146 55.591 76.5146C52.2594 76.5146 47.3184 73.8582 42.0715 69.0122C44.3248 66.6456 46.578 63.957 48.7186 60.9786C52.356 60.5922 55.8003 59.9965 58.9548 59.2076C59.325 60.8337 59.6147 62.3953 59.7917 63.8926ZM65.9882 53.1542C64.604 53.7499 63.0911 54.2812 61.53 54.7803C60.6126 51.6248 59.4055 48.3405 57.9087 44.9757C59.3894 41.627 60.5804 38.3588 61.4817 35.2194C63.0751 35.7185 64.5879 36.2659 66.0043 36.8616C71.7018 39.2926 75.3875 42.4803 75.3875 45.0079C75.3714 47.5355 71.6857 50.7393 65.9882 53.1542Z" fill="#61DAFB"/>
<path d="M39.4642 52.3653C43.5264 52.3653 46.8194 49.0713 46.8194 45.0078C46.8194 40.9444 43.5264 37.6504 39.4642 37.6504C35.4019 37.6504 32.1089 40.9444 32.1089 45.0078C32.1089 49.0713 35.4019 52.3653 39.4642 52.3653Z" fill="#61DAFB"/>
</g>
<defs>
<clipPath id="clip0_4_87">
<rect width="78.9605" height="90" fill="white"/>
</clipPath>
</defs>
</svg>
