<svg width="95" height="90" viewBox="0 0 95 90" fill="none" xmlns="http://www.w3.org/2000/svg">
<g clip-path="url(#clip0_4_91)">
<path d="M65.42 62.6049C68.9042 62.2442 71.5475 59.2405 71.4272 55.6356C71.3074 52.0311 68.3034 49.1473 64.699 49.1473H64.4589C60.7339 49.2675 57.8506 52.3915 57.9708 56.1162C58.091 57.9187 58.8117 59.4806 59.893 60.562C55.8081 68.6127 49.5604 74.5002 40.1889 79.4266C33.8211 82.791 27.2131 83.9926 20.6051 83.1517C15.1983 82.4307 10.9931 80.0278 8.34951 76.0622C4.50502 70.1747 4.14469 63.8062 7.38875 57.4381C9.67169 52.872 13.2757 49.5076 15.5587 47.8254C15.0781 46.2635 14.3571 43.6201 13.9967 41.6978C-3.42478 54.3141 -1.6224 71.3763 3.66413 79.4266C7.62885 85.4347 15.6789 89.1595 24.5698 89.1595C26.9726 89.1595 29.3754 88.919 31.7786 88.3186C47.1576 85.3145 58.8121 76.1824 65.42 62.6049ZM86.5662 47.7056C77.4348 37.0115 63.9784 31.124 48.5993 31.124H46.6771C45.5957 28.9612 43.3128 27.5191 40.7897 27.5191H40.5493C36.825 27.6394 33.9417 30.7633 34.0615 34.4884C34.1818 38.0929 37.1854 40.9768 40.7897 40.9768H41.0298C43.6731 40.8565 45.956 39.1743 46.9172 36.8913H49.0799C58.2113 36.8913 66.8617 39.5347 74.6717 44.7015C80.6789 48.6667 85.0043 53.8336 87.4071 60.0814C89.4495 65.1281 89.3293 70.0544 87.1666 74.2601C83.8027 80.6282 78.1558 84.1129 70.7066 84.1129C65.9006 84.1129 61.3351 82.6708 58.9319 81.5894C57.6105 82.791 55.2073 84.7133 53.5252 85.9153C58.6918 88.3182 63.9784 89.6401 69.0244 89.6401C80.5586 89.6401 89.0892 83.2716 92.3333 76.9035C95.8174 69.9342 95.577 57.9187 86.5662 47.7056ZM25.5309 64.6471C25.6512 68.252 28.6548 71.1354 32.2591 71.1354H32.4996C36.2242 71.0156 39.1076 67.8913 38.9874 64.1665C38.8675 60.5616 35.8635 57.6782 32.2591 57.6782H32.0191C31.7786 57.6782 31.4179 57.6782 31.1782 57.798C26.252 49.6275 24.2095 40.7363 24.9305 31.1236C25.4107 23.9142 27.8139 17.666 32.0191 12.4992C35.5032 8.05336 42.2314 5.89058 46.7973 5.77071C59.5327 5.53024 64.9391 21.3908 65.2998 27.7592C66.8617 28.1196 69.505 28.9609 71.3074 29.5617C69.8653 10.0966 57.8506 0.00341797 46.3167 0.00341797C35.5032 0.00341797 25.5309 7.81362 21.5658 19.3486C16.0392 34.7285 19.6436 49.5076 26.3718 61.1628C25.7714 62.0037 25.4107 63.3256 25.5309 64.6475V64.6471Z" fill="#764ABC"/>
</g>
<defs>
<clipPath id="clip0_4_91">
<rect width="94.4156" height="90" fill="white"/>
</clipPath>
</defs>
</svg>
