<svg width="99" height="79" viewBox="0 0 99 79" fill="none" xmlns="http://www.w3.org/2000/svg">
<path d="M6.01217 34.0317C6.01217 34.0317 49.3838 16.8777 64.4257 10.8374C70.1921 8.42147 89.7468 0.689805 89.7468 0.689805C89.7468 0.689805 98.7722 -2.6925 98.02 5.52201C97.7691 8.90466 95.7636 20.7432 93.7581 33.5485C90.7495 51.6692 87.4904 71.4809 87.4904 71.4809C87.4904 71.4809 86.989 77.0381 82.7271 78.0044C78.4653 78.9708 71.4453 74.6221 70.1921 73.6554C69.189 72.9308 51.3893 62.0583 44.871 56.7429C43.116 55.2933 41.1105 52.3942 45.1215 49.0115C54.147 41.0384 64.9271 31.1326 71.4453 24.8508C74.4539 21.9514 77.4622 15.1864 64.9271 23.4009C47.1274 35.2399 29.5782 46.3538 29.5782 46.3538C29.5782 46.3538 25.5669 48.7698 18.0459 46.5953C10.5245 44.4211 1.74995 41.5216 1.74995 41.5216C1.74995 41.5216 -4.26655 37.8976 6.01217 34.0317Z" fill="white"/>
</svg>
